<?xml version="1.0" encoding="UTF-8"?>
<svg width="521px" height="172px" viewBox="0 0 521 172" version="1.1" xmlns="http://www.w3.org/2000/svg" xmlns:xlink="http://www.w3.org/1999/xlink">
    <!-- Generator: Sketch 52.6 (67491) - http://www.bohemiancoding.com/sketch -->
    <title>Group</title>
    <desc>Created with Sketch.</desc>
    <g id="Page-1" stroke="none" stroke-width="1" fill="none" fill-rule="evenodd">
        <g id="Apple-TV" transform="translate(-460.000000, -80.000000)">
            <g id="Group" transform="translate(470.000000, 90.000000)">
                <path d="M29.8359512,-5 L492.637733,-5 C499.817435,-5 505.637733,0.820298252 505.637733,8 C505.637733,8.67895506 505.584543,9.35686679 505.478652,10.0275135 L484.004967,146.027513 C483.007282,152.34619 477.561005,157 471.164049,157 L8.36226697,157 C1.18256523,157 -4.63773303,151.179702 -4.63773303,144 C-4.63773303,143.321045 -4.58454315,142.643133 -4.47865158,141.972487 L16.9950326,5.97248654 C17.9927184,-0.346190094 23.4389948,-5 29.8359512,-5 Z" id="Rectangle" stroke="#FFE74C" stroke-width="10" fill-rule="nonzero"></path>
                <path d="M80.8271484,117.734219 L65.7978516,117.734219 L50.1533203,54.4330291 L49.8896484,54.4330291 L49.7138672,56.2645283 C48.7763625,64.5063158 47.8095753,71.870395 46.8134766,78.356987 L40.4414062,117.734219 L28.3564453,117.734219 L41.9355469,34.057601 L57.6240234,34.057601 L72.5654297,95.6989947 L72.7412109,95.6989947 C73.0927752,92.7991065 73.6640585,88.6591967 74.4550781,83.279141 C75.2460977,77.8990853 77.8827901,61.4920693 82.3652344,34.057601 L94.40625,34.057601 L80.8271484,117.734219 Z M130.96875,97.8166656 L110.182617,97.8166656 L102.624023,117.734219 L88.5615234,117.734219 L122.223633,33.7141949 L138.615234,33.7141949 L145.075195,117.734219 L132.023438,117.734219 L130.96875,97.8166656 Z M130.30957,82.9357349 L129.166992,62.9037128 C128.874022,57.9052213 128.727539,53.0785062 128.727539,48.4234225 L128.727539,46.362986 C127.43847,50.9417568 125.841806,55.7875498 123.9375,60.9005106 L115.675781,82.9357349 L130.30957,82.9357349 Z M173.771484,71.2026934 L177.199219,71.2026934 C181.037129,71.2026934 184.02538,70.1152516 186.164062,67.9403355 C188.302745,65.7654193 189.37207,62.4458603 189.37207,57.9815588 C189.37207,54.8527321 188.676276,52.5061472 187.284668,50.9417339 C185.893059,49.3773205 183.70314,48.5951256 180.714844,48.5951256 L177.462891,48.5951256 L173.771484,71.2026934 Z M171.442383,85.6257493 L166.212891,117.734219 L152.80957,117.734219 L166.388672,34.057601 L182.165039,34.057601 C189.108433,34.057601 194.323225,36.0035494 197.80957,39.8955045 C201.295916,43.7874597 203.039062,49.4917594 203.039062,57.0085748 C203.039062,63.0372897 201.823254,68.2169465 199.391602,72.5477006 C196.959949,76.8784546 193.459007,80.093085 188.888672,82.1916883 L200.358398,117.734219 L185.768555,117.734219 L176.671875,85.6257493 L171.442383,85.6257493 Z M245.050781,47.5076729 C241.183574,47.5076729 237.704605,49.0529849 234.61377,52.1436552 C231.522934,55.2343255 229.040048,59.7844107 227.165039,65.7940474 C225.29003,71.8036841 224.352539,78.2615618 224.352539,85.1678745 C224.352539,91.5399972 225.355947,96.2713227 227.362793,99.361993 C229.369639,102.452663 232.570291,103.997975 236.964844,103.997975 C241.242209,103.997975 246.193331,102.528975 251.818359,99.5909304 L251.818359,114.471861 C245.988252,117.409906 240.128936,118.878906 234.240234,118.878906 C226.798791,118.878906 221.012716,116.026756 216.881836,110.322371 C212.750956,104.617985 210.685547,96.538484 210.685547,86.0836241 C210.685547,76.0866411 212.208969,66.8815421 215.255859,58.4680507 C218.30275,50.0545594 222.374975,43.6634544 227.472656,39.2945439 C232.570338,34.9256334 238.429654,32.7412109 245.050781,32.7412109 C248.712909,32.7412109 251.96483,33.1704643 254.806641,34.0289838 C257.648452,34.8875033 260.695296,36.4614322 263.947266,38.7508176 L258.761719,53.0594048 C255.656234,50.8081758 253.092784,49.3200976 251.071289,48.5951256 C249.049795,47.8701535 247.042979,47.5076729 245.050781,47.5076729 Z M285.436523,117.734219 L272.033203,117.734219 L283.195312,48.824063 L267.726562,48.824063 L270.143555,34.057601 L314.52832,34.057601 L312.111328,48.824063 L296.598633,48.824063 L285.436523,117.734219 Z M346.344727,117.734219 L310.441406,117.734219 L324.020508,34.057601 L359.967773,34.057601 L357.594727,48.5951256 L335.094727,48.5951256 L332.150391,66.9673515 L353.112305,66.9673515 L350.695312,81.5048761 L329.733398,81.5048761 L326.217773,103.082226 L348.717773,103.082226 L346.344727,117.734219 Z M396.662109,47.5076729 C392.794903,47.5076729 389.315933,49.0529849 386.225098,52.1436552 C383.134262,55.2343255 380.651377,59.7844107 378.776367,65.7940474 C376.901358,71.8036841 375.963867,78.2615618 375.963867,85.1678745 C375.963867,91.5399972 376.967275,96.2713227 378.974121,99.361993 C380.980967,102.452663 384.181619,103.997975 388.576172,103.997975 C392.853537,103.997975 397.804659,102.528975 403.429688,99.5909304 L403.429688,114.471861 C397.59958,117.409906 391.740264,118.878906 385.851562,118.878906 C378.410119,118.878906 372.624044,116.026756 368.493164,110.322371 C364.362284,104.617985 362.296875,96.538484 362.296875,86.0836241 C362.296875,76.0866411 363.820297,66.8815421 366.867188,58.4680507 C369.914078,50.0545594 373.986303,43.6634544 379.083984,39.2945439 C384.181666,34.9256334 390.040983,32.7412109 396.662109,32.7412109 C400.324237,32.7412109 403.576158,33.1704643 406.417969,34.0289838 C409.25978,34.8875033 412.306624,36.4614322 415.558594,38.7508176 L410.373047,53.0594048 C407.267563,50.8081758 404.704112,49.3200976 402.682617,48.5951256 C400.661123,47.8701535 398.654307,47.5076729 396.662109,47.5076729 Z M461.833008,117.734219 L448.385742,117.734219 L454.274414,81.6193448 L433.576172,81.6193448 L427.6875,117.734219 L414.28418,117.734219 L427.863281,34.057601 L441.310547,34.057601 L435.993164,66.8528828 L456.691406,66.8528828 L462.008789,34.057601 L475.412109,34.057601 L461.833008,117.734219 Z" id="NARCTECH" fill="#FFE74C"></path>
            </g>
        </g>
    </g>
</svg>